<?xml version="1.0" encoding="UTF-8" standalone="no"?>
<!-- Generator: Adobe Illustrator 24.2.1, SVG Export Plug-In . SVG Version: 6.00 Build 0)  -->

<svg
   version="1.1"
   id="Capa_1"
   x="0px"
   y="0px"
   viewBox="0 0 1730.2231 345.625"
   xml:space="preserve"
   sodipodi:docname="logo_black.svg"
   width="1730.2231"
   height="345.625"
   inkscape:version="1.3.2 (091e20e, 2023-11-25, custom)"
   xmlns:inkscape="http://www.inkscape.org/namespaces/inkscape"
   xmlns:sodipodi="http://sodipodi.sourceforge.net/DTD/sodipodi-0.dtd"
   xmlns="http://www.w3.org/2000/svg"
   xmlns:svg="http://www.w3.org/2000/svg"><defs
   id="defs12" /><sodipodi:namedview
   id="namedview12"
   pagecolor="#505050"
   bordercolor="#eeeeee"
   borderopacity="1"
   inkscape:showpageshadow="0"
   inkscape:pageopacity="0"
   inkscape:pagecheckerboard="0"
   inkscape:deskcolor="#505050"
   inkscape:zoom="0.38333333"
   inkscape:cx="860.86957"
   inkscape:cy="230.86957"
   inkscape:window-width="1600"
   inkscape:window-height="821"
   inkscape:window-x="-9"
   inkscape:window-y="222"
   inkscape:window-maximized="1"
   inkscape:current-layer="Capa_1" />



<g
   id="g12"
   transform="translate(-99.1,-307.075)"><g
     id="g9">
	<polygon
   points="99.1,459 166.9,459 166.9,650.1 193.7,650.1 193.7,459 261.8,459 261.8,435.2 99.1,435.2 "
   id="polygon1" />
	<path
   d="m 383.1,515.6 c -2.2,-6.6 -5.6,-11.8 -10.1,-15.8 -4.6,-4 -10.8,-6.9 -18.6,-8.7 -7.8,-1.9 -17.9,-2.8 -30.1,-2.8 -16.2,0 -29.2,1.5 -38.7,4.5 -9.6,3 -16.6,7.8 -21.1,14.4 -4.5,6.6 -7.3,15.1 -8.6,25.6 -1.2,10.5 -1.9,23.2 -1.9,37.9 0,12.5 0.4,23.3 1.2,32.5 0.8,9.2 2.6,16.9 5.3,23.3 2.7,6.4 6.7,11.5 11.9,15.3 5.2,3.9 12.1,6.6 20.8,8.3 8.6,1.7 19.4,2.5 32.3,2.5 6.7,0 13.5,-0.2 20.5,-0.6 7,-0.4 13.6,-0.9 20,-1.6 6.3,-0.6 11.7,-1.4 16.1,-2.2 v -20.6 c -4.8,0.6 -10.2,1.2 -16.2,1.9 -6,0.6 -12.1,1.1 -18.1,1.4 -6,0.3 -11.6,0.5 -16.6,0.5 -12.1,0 -21.6,-0.7 -28.6,-2.2 -7,-1.5 -12.1,-4.1 -15.3,-7.8 -3.2,-3.7 -5.4,-9.1 -6.4,-15.9 -1,-6.9 -1.6,-15.7 -1.6,-26.5 h 109 v -8.4 c 0,-11.9 -0.3,-22.3 -0.9,-31.4 -0.7,-9.2 -2.1,-17 -4.3,-23.6 z m -102.3,18.6 c 1,-6.7 3,-11.8 5.9,-15.3 2.9,-3.5 7.3,-6 13.1,-7.3 5.8,-1.4 13.7,-2 23.7,-2 7.7,0 14.2,0.5 19.4,1.6 5.2,1 9.3,3.2 12.3,6.4 3,3.2 5.2,8 6.4,14.4 1.2,6.4 1.9,14.9 1.9,25.8 v 3.1 h -84.3 c 0.1,-11.2 0.6,-20 1.6,-26.7 z"
   id="path1" />
	<rect
   x="422.89999"
   y="418.10001"
   width="25.6"
   height="232"
   id="rect1" />
	<path
   d="m 612.6,515.6 c -2.2,-6.6 -5.6,-11.8 -10.1,-15.8 -4.6,-4 -10.8,-6.9 -18.6,-8.7 -7.8,-1.9 -17.9,-2.8 -30.1,-2.8 -16.2,0 -29.2,1.5 -38.7,4.5 -9.6,3 -16.6,7.8 -21.1,14.4 -4.5,6.6 -7.3,15.1 -8.6,25.6 -1.2,10.5 -1.9,23.2 -1.9,37.9 0,12.5 0.4,23.3 1.2,32.5 0.8,9.2 2.6,16.9 5.3,23.3 2.7,6.4 6.7,11.5 11.9,15.3 5.2,3.9 12.1,6.6 20.8,8.3 8.6,1.7 19.4,2.5 32.3,2.5 6.7,0 13.5,-0.2 20.5,-0.6 7,-0.4 13.6,-0.9 20,-1.6 6.3,-0.6 11.7,-1.4 16.1,-2.2 v -20.6 c -4.8,0.6 -10.2,1.2 -16.2,1.9 -6,0.6 -12.1,1.1 -18.1,1.4 -6,0.3 -11.6,0.5 -16.6,0.5 -12.1,0 -21.6,-0.7 -28.6,-2.2 -7,-1.5 -12.1,-4.1 -15.3,-7.8 -3.2,-3.7 -5.4,-9.1 -6.4,-15.9 -1,-6.9 -1.6,-15.7 -1.6,-26.5 h 109 v -8.4 c 0,-11.9 -0.3,-22.3 -0.9,-31.4 -0.7,-9.2 -2.1,-17 -4.3,-23.6 z m -102.2,18.6 c 1,-6.7 3,-11.8 5.9,-15.3 2.9,-3.5 7.3,-6 13.1,-7.3 5.8,-1.4 13.7,-2 23.7,-2 7.7,0 14.2,0.5 19.4,1.6 5.2,1 9.3,3.2 12.3,6.4 3,3.2 5.2,8 6.4,14.4 1.2,6.4 1.9,14.9 1.9,25.8 v 3.1 h -84.3 c 0,-11.2 0.5,-20 1.6,-26.7 z"
   id="path2" />
	<polygon
   points="665,490.8 632.8,490.8 632.8,512.4 665,512.4 665,650.1 690.3,650.1 690.3,512.4 728.4,512.4 728.4,490.8 690.3,490.8 690.3,444.6 665,444.6 "
   id="polygon2" />
	<path
   d="m 871.9,515.6 c -2.2,-6.6 -5.6,-11.8 -10.1,-15.8 -4.6,-4 -10.8,-6.9 -18.6,-8.7 -7.8,-1.9 -17.9,-2.8 -30.1,-2.8 -16.2,0 -29.2,1.5 -38.7,4.5 -9.6,3 -16.6,7.8 -21.1,14.4 -4.5,6.6 -7.3,15.1 -8.6,25.6 -1.2,10.5 -1.9,23.2 -1.9,37.9 0,12.5 0.4,23.3 1.2,32.5 0.8,9.2 2.6,16.9 5.3,23.3 2.7,6.4 6.7,11.5 11.9,15.3 5.2,3.9 12.1,6.6 20.8,8.3 8.6,1.7 19.4,2.5 32.3,2.5 6.7,0 13.5,-0.2 20.5,-0.6 7,-0.4 13.6,-0.9 20,-1.6 6.3,-0.6 11.7,-1.4 16.1,-2.2 v -20.6 c -4.8,0.6 -10.2,1.2 -16.2,1.9 -6,0.6 -12.1,1.1 -18.1,1.4 -6,0.3 -11.6,0.5 -16.6,0.5 -12.1,0 -21.6,-0.7 -28.6,-2.2 -7,-1.5 -12.1,-4.1 -15.3,-7.8 -3.2,-3.7 -5.4,-9.1 -6.4,-15.9 -1,-6.9 -1.6,-15.7 -1.6,-26.5 h 109 v -8.4 c 0,-11.9 -0.3,-22.3 -0.9,-31.4 -0.8,-9.2 -2.2,-17 -4.3,-23.6 z m -102.3,18.6 c 1,-6.7 3,-11.8 5.9,-15.3 2.9,-3.5 7.3,-6 13.1,-7.3 5.8,-1.4 13.7,-2 23.7,-2 7.7,0 14.2,0.5 19.4,1.6 5.2,1 9.3,3.2 12.3,6.4 3,3.2 5.2,8 6.4,14.4 1.2,6.4 1.9,14.9 1.9,25.8 v 3.1 H 768 c 0,-11.2 0.5,-20 1.6,-26.7 z"
   id="path3" />
	<path
   d="m 975.7,631 c -9.8,0 -17.6,-0.8 -23.6,-2.3 -6,-1.5 -10.5,-4.5 -13.7,-8.7 -3.2,-4.3 -5.4,-10.4 -6.4,-18.4 -1,-8 -1.6,-18.4 -1.6,-31.1 0,-12.5 0.5,-22.7 1.6,-30.6 1,-7.9 3.1,-14.1 6.1,-18.4 3,-4.4 7.5,-7.4 13.4,-9.1 5.9,-1.7 13.8,-2.5 23.6,-2.5 5.6,0 11.9,0.3 18.9,0.9 7,0.6 12.9,1.4 17.6,2.2 v -20.6 c -5.2,-1.2 -11.8,-2.2 -19.8,-3 -8,-0.7 -15.7,-1.1 -23,-1.1 -11,0 -20.3,1 -27.8,3 -7.5,2 -13.6,4.9 -18.3,8.9 -4.7,4 -8.3,9.2 -10.9,15.8 -2.6,6.6 -4.4,14.3 -5.3,23.3 -0.9,9 -1.4,19.4 -1.4,31.2 0,11.5 0.4,21.7 1.1,30.6 0.7,9 2.2,16.7 4.5,23.1 2.3,6.5 5.8,11.8 10.5,15.9 4.7,4.2 10.9,7.3 18.7,9.4 7.8,2.1 17.7,3.1 29.8,3.1 7.5,0 15.3,-0.4 23.4,-1.2 8.1,-0.8 14.8,-1.8 20,-2.8 V 628 c -5.4,0.8 -11.6,1.6 -18.4,2.2 -6.8,0.5 -13.2,0.8 -19,0.8 z"
   id="path4" />
	<path
   d="m 1166.6,503.3 c -3.9,-5 -9.4,-8.7 -16.6,-11.1 -7.2,-2.4 -16.6,-3.6 -28.3,-3.6 -10.6,0 -19.4,1 -26.2,3 -6.9,2 -12.3,4.7 -16.2,8.3 -4,3.5 -7,7.5 -9.1,11.9 h -1.6 V 418.1 H 1043 v 232 h 25.6 V 568 c 0,-8.9 0.3,-16.9 0.9,-23.9 0.6,-7 2.3,-12.9 5,-17.8 2.7,-4.9 7,-8.6 12.8,-11.2 5.8,-2.6 13.8,-3.9 24,-3.9 8.5,0 15.4,0.5 20.6,1.6 5.2,1 9.2,3.2 11.9,6.4 2.7,3.2 4.5,8 5.5,14.4 0.9,6.4 1.4,14.9 1.4,25.8 v 90.9 h 25.3 v -99.6 c 0,-10.8 -0.6,-20.1 -1.9,-28 -1.1,-8 -3.6,-14.4 -7.5,-19.4 z"
   id="path5" />
	<path
   d="m 1307.3,571.1 c 0,13.5 -0.3,24.1 -0.8,31.7 -0.5,7.6 -2.1,13.1 -4.8,16.6 -2.7,3.4 -7.1,5.7 -13.1,6.7 -6,1 -14.7,1.7 -25.9,1.9 v 22.2 c 13.9,0 25.3,-0.4 34.2,-1.2 8.8,-0.8 15.8,-2.7 20.9,-5.6 5.1,-2.9 8.8,-7.4 11.1,-13.6 2.3,-6.1 3.7,-14.7 4.4,-25.6 0.6,-10.9 0.9,-24.7 0.9,-41.4 V 435.2 h -26.9 z"
   id="path6" />
	<path
   d="m 1505.5,513 c -2.4,-6.2 -6.1,-11.1 -11.2,-14.7 -5.1,-3.5 -11.9,-6.1 -20.5,-7.7 -8.5,-1.6 -19.5,-2.3 -32.8,-2.3 -13.1,0 -24,0.8 -32.6,2.3 -8.6,1.6 -15.5,4.1 -20.5,7.7 -5,3.5 -8.7,8.4 -11.1,14.7 -2.4,6.2 -3.9,14.1 -4.5,23.6 -0.6,9.5 -0.9,20.8 -0.9,33.9 0,13.1 0.3,24.4 0.9,33.9 0.6,9.5 2.1,17.3 4.5,23.6 2.4,6.2 6.1,11.1 11.1,14.7 5,3.5 11.8,6.1 20.5,7.7 8.6,1.6 19.5,2.3 32.6,2.3 13.3,0 24.3,-0.8 32.8,-2.3 8.5,-1.6 15.4,-4.1 20.5,-7.7 5.1,-3.5 8.8,-8.4 11.2,-14.7 2.4,-6.2 3.9,-14.1 4.5,-23.6 0.6,-9.5 0.9,-20.8 0.9,-33.9 0,-13.1 -0.3,-24.4 -0.9,-33.9 -0.6,-9.5 -2.1,-17.4 -4.5,-23.6 z m -20.9,89.2 c -0.5,8 -2.1,14.1 -4.7,18.3 -2.6,4.2 -6.9,7 -13,8.4 -6,1.5 -14.7,2.2 -25.9,2.2 -11,0 -19.6,-0.7 -25.8,-2.2 -6.1,-1.5 -10.5,-4.3 -13,-8.4 -2.5,-4.2 -4.1,-10.3 -4.7,-18.3 -0.6,-8 -0.9,-18.6 -0.9,-31.7 0,-13.1 0.3,-23.7 0.9,-31.7 0.6,-8 2.2,-14.1 4.7,-18.3 2.5,-4.2 6.8,-7 13,-8.4 6.1,-1.5 14.7,-2.2 25.8,-2.2 11.2,0 19.9,0.7 25.9,2.2 6,1.5 10.4,4.3 13,8.4 2.6,4.2 4.2,10.3 4.7,18.3 0.5,8 0.8,18.6 0.8,31.7 0,13.1 -0.3,23.6 -0.8,31.7 z"
   id="path7" />
	<path
   d="m 1671.1,505.2 c -4.4,-6 -10.3,-10.4 -17.8,-13 -7.5,-2.6 -17,-3.9 -28.4,-3.9 -8.5,0 -16.1,0.7 -22.8,2 -6.7,1.4 -12.4,3.7 -17.3,7 -4.9,3.3 -8.8,7.9 -11.7,13.7 h -1.6 v -93.1 h -25.6 v 232 h 23.1 l 0.9,-22.8 h 1.9 c 3.1,7.3 7.4,12.8 12.8,16.4 5.4,3.6 11.6,6 18.4,7.2 6.9,1.1 13.9,1.7 21.2,1.7 11.4,0 21,-1.3 28.6,-3.9 7.6,-2.6 13.6,-6.9 18,-13 4.4,-6 7.5,-14.4 9.4,-25 1.9,-10.6 2.8,-24 2.8,-40.3 0,-16.3 -0.9,-29.7 -2.7,-40.3 -1.7,-10.3 -4.8,-18.7 -9.2,-24.7 z m -14.9,97.1 c -1,7.9 -3,13.8 -5.9,17.8 -2.9,4 -7.2,6.6 -13,8 -5.7,1.4 -13.4,2 -23,2 -10.2,0 -18.3,-1.4 -24.4,-4.1 -6,-2.7 -10.4,-7 -13.1,-12.8 -2.5,-5.4 -4,-11.6 -4.5,-18.6 -0.5,-7 -0.8,-15 -0.8,-24.2 0,-9.4 0.3,-17.5 0.9,-24.5 0.6,-7 2.2,-13.2 4.7,-18.6 2.5,-5.6 6.8,-9.7 12.8,-12.3 6,-2.6 14.2,-3.9 24.4,-3.9 9.6,0 17.2,0.6 23,1.9 5.7,1.2 10,3.9 13,8 2.9,4.1 4.9,10 5.9,17.8 1,7.8 1.6,18.4 1.6,31.7 -0.1,13.3 -0.6,23.9 -1.6,31.8 z"
   id="path8" />
	<path
   d="m 1826.2,578.6 c -2.2,-6 -5.7,-10.3 -10.6,-12.6 -4.9,-2.4 -11.6,-4 -20.1,-4.8 l -43.1,-4.7 c -5.2,-0.6 -9.3,-1.5 -12.2,-2.7 -2.9,-1.1 -4.8,-3.2 -5.8,-6.2 -0.9,-3 -1.4,-7.5 -1.4,-13.6 0,-7.7 1.4,-13.2 4.2,-16.6 2.8,-3.3 7,-5.4 12.6,-6.2 5.6,-0.8 12.4,-1.2 20.3,-1.2 5.8,0 11.6,0.1 17.3,0.3 5.7,0.2 11.3,0.6 16.9,1.1 5.5,0.5 11,1.2 16.4,2 v -20.6 c -4.2,-0.8 -9.2,-1.6 -15,-2.2 -5.8,-0.6 -11.8,-1.1 -17.8,-1.6 -6,-0.4 -11.8,-0.6 -17.2,-0.6 -9.6,0 -18.2,0.5 -25.9,1.4 -7.7,0.9 -14.3,3 -19.7,6.1 -5.4,3.1 -9.6,7.8 -12.5,14.1 -2.9,6.2 -4.4,14.6 -4.4,25 0,9.2 0.9,16.8 2.8,22.8 1.9,6 5.3,10.7 10.3,13.9 5,3.2 12.4,5.4 22.2,6.4 l 41.2,4.7 c 5.6,0.6 9.8,1.4 12.6,2.3 2.8,0.9 4.8,3 5.9,6.1 1.1,3.1 1.7,8.1 1.7,15 0,6 -0.8,10.9 -2.3,14.7 -1.6,3.7 -4.8,6.4 -9.7,8 -4.9,1.6 -12.8,2.3 -23.6,2.3 -4.8,0 -9.5,0 -14.1,-0.2 -4.6,-0.1 -9.2,-0.3 -13.7,-0.6 -4.6,-0.3 -9.2,-0.7 -13.9,-1.1 -4.7,-0.4 -9.5,-0.8 -14.5,-1.2 v 20.6 c 5.4,0.8 11.4,1.5 18.1,2 6.7,0.5 13.4,1 20.3,1.4 6.9,0.4 13.3,0.6 19.4,0.6 9.6,0 18,-0.6 25.3,-1.7 7.3,-1.1 13.4,-3.4 18.4,-6.7 5,-3.3 8.7,-8.1 11.1,-14.2 2.4,-6.1 3.6,-14.2 3.6,-24.2 0.2,-12.2 -0.9,-21.3 -3.1,-27.3 z"
   id="path9" />
</g><path
     d="m 1239.8,390 c -4.6,0 -8.3,-3.7 -8.3,-8.3 0,-2.5 1.1,-4.9 3.1,-6.5 49.6,-40.1 120.4,-40.1 170,0 3.6,2.8 4.3,8 1.5,11.6 -2.8,3.6 -8,4.3 -11.6,1.5 -0.1,-0.1 -0.2,-0.2 -0.3,-0.2 -43.5,-35.2 -105.6,-35.2 -149.1,0 -1.5,1.3 -3.4,1.9 -5.3,1.9 z"
     id="path10" /><path
     d="m 1197.1,367.1 c -4.6,0 -8.3,-3.7 -8.3,-8.3 0,-2.5 1.1,-4.9 3.1,-6.5 74.5,-60.3 181,-60.3 255.5,0 3.6,2.9 4.1,8.1 1.2,11.7 -2.9,3.6 -8.1,4.1 -11.7,1.2 -68.4,-55.3 -166.2,-55.3 -234.6,0 -1.5,1.3 -3.3,1.9 -5.2,1.9 z"
     id="path11" /><path
     d="m 1270.3,422.6 c -4.6,0 -8.3,-3.7 -8.3,-8.3 0,-2 0.7,-3.9 2,-5.5 0.2,-0.3 0.5,-0.5 0.8,-0.8 0.3,-0.3 0.5,-0.4 0.7,-0.6 l 1.6,-1.2 c 0.5,-0.4 0.9,-0.7 1.4,-1.1 l 0.9,-0.6 0.7,-0.5 c 0.5,-0.3 0.9,-0.7 1.4,-1 l 0.9,-0.6 0.7,-0.5 c 0.5,-0.3 0.9,-0.6 1.4,-0.9 0.3,-0.2 0.6,-0.4 1,-0.6 l 0.8,-0.5 1.4,-0.8 1,-0.5 0.8,-0.4 1.4,-0.7 1,-0.5 0.8,-0.4 1.4,-0.7 1.1,-0.5 0.8,-0.4 1.5,-0.6 1.1,-0.4 0.9,-0.3 c 0.5,-0.2 1,-0.4 1.4,-0.5 l 1.1,-0.4 0.9,-0.3 c 0.5,-0.2 1,-0.3 1.5,-0.5 l 1.1,-0.3 0.9,-0.3 1.4,-0.4 1.2,-0.3 1,-0.2 c 0.5,-0.1 0.9,-0.2 1.4,-0.3 0.5,-0.1 0.9,-0.2 1.3,-0.3 l 0.9,-0.2 1.3,-0.2 1.4,-0.2 0.9,-0.1 c 0.4,-0.1 0.8,-0.1 1.2,-0.2 l 1.5,-0.2 1,-0.1 c 0.4,0 0.8,-0.1 1.2,-0.1 0.6,0 1.2,-0.1 1.8,-0.1 l 0.8,-0.1 1,-0.1 c 1.2,0 2.4,-0.1 3.7,-0.1 19.7,0 38.8,6.8 54.1,19.2 3.6,2.9 4.1,8.1 1.2,11.7 -2.9,3.6 -8.1,4.1 -11.7,1.2 v 0 c -13.2,-10.6 -29.7,-16.1 -46.6,-15.4 l -1.6,0.1 -1.3,0.1 -1.9,0.2 -1,0.1 -1.9,0.3 -1,0.1 -0.9,0.2 -1.2,0.2 -0.9,0.2 -1,0.2 -1.9,0.5 -1,0.3 -1.8,0.5 c -0.4,0.1 -0.7,0.2 -1,0.3 l -1.8,0.6 -1,0.4 -1.7,0.6 c -0.4,0.1 -0.7,0.3 -1,0.4 l -1.7,0.7 -1,0.5 -1.6,0.8 -1,0.5 -1.6,0.9 -1,0.6 -1.5,0.9 c -0.4,0.2 -0.7,0.5 -1,0.7 l -1.4,0.9 -1,0.7 -1.4,1 -1.1,0.8 -1.1,0.9 c -1.3,1.7 -3.5,2.6 -5.8,2.5 z m 6.2,-2.8 z m 0,0 z m 0,0 z m 0,0 z m 0.1,0 z m 0,0 z m 0,0 z"
     id="path12" /></g>
</svg>
