<?xml version="1.0" encoding="UTF-8" standalone="no"?>
<svg
   id="Capa_1"
   data-name="Capa 1"
   viewBox="0 0 716.26257 643.82056"
   version="1.1"
   sodipodi:docname="tjtelech.svg"
   width="716.26257"
   height="643.82056"
   inkscape:version="1.3.2 (091e20e, 2023-11-25, custom)"
   inkscape:export-filename="tjtelech.png"
   inkscape:export-xdpi="96"
   inkscape:export-ydpi="96"
   xmlns:inkscape="http://www.inkscape.org/namespaces/inkscape"
   xmlns:sodipodi="http://sodipodi.sourceforge.net/DTD/sodipodi-0.dtd"
   xmlns="http://www.w3.org/2000/svg"
   xmlns:svg="http://www.w3.org/2000/svg">
  <sodipodi:namedview
     id="namedview5"
     pagecolor="#505050"
     bordercolor="#eeeeee"
     borderopacity="1"
     inkscape:showpageshadow="0"
     inkscape:pageopacity="0"
     inkscape:pagecheckerboard="0"
     inkscape:deskcolor="#505050"
     inkscape:zoom="0.50583333"
     inkscape:cx="357.82537"
     inkscape:cy="321.25206"
     inkscape:window-width="1600"
     inkscape:window-height="821"
     inkscape:window-x="-9"
     inkscape:window-y="222"
     inkscape:window-maximized="1"
     inkscape:current-layer="Capa_1" />
  <defs
     id="defs1">
    <style
       id="style1">.cls-1{fill:#3558d8;}.cls-2{fill:#75e9e0;}</style>
  </defs>
  <path
     class="cls-1"
     d="m 127.26,643.82054 v -358.83 H 0 v -44.56 h 305.51 v 44.56 H 177.69 v 358.83 z"
     id="path1" />
  <path
     d="m 361.13,643.82054 v -41.63 q 31.67,-0.59 48.67,-3.52 17,-2.93 24.62,-12.6 7.62,-9.67 9.09,-31.08 1.47,-21.41 1.49,-59.51 v -255.05 h 50.4 v 239.22 q 0,46.9 -1.76,77.69 -1.76,30.79 -8.21,48.07 -6.43,17.31 -20.81,25.5 -14.38,8.19 -39.28,10.55 -24.93,2.37 -64.21,2.36 z"
     id="path2" />
  <path
     class="cls-2"
     d="m 320.61,155.45054 a 15.59,15.59 0 0 1 -9.81,-27.7 253.69,253.69 0 0 1 319.12,0 15.59,15.59 0 1 1 -19.61,24.23 222.52,222.52 0 0 0 -279.9,0 15.56,15.56 0 0 1 -9.8,3.47 z"
     id="path3" />
  <path
     class="cls-1"
     d="m 240.34,112.56054 a 15.59,15.59 0 0 1 -9.81,-27.699999 381.33,381.33 0 0 1 479.66,0 15.59,15.59 0 1 1 -19.61,24.229999 350.16,350.16 0 0 0 -440.44,0 15.56,15.56 0 0 1 -9.8,3.47 z"
     id="path4" />
  <path
     class="cls-1"
     d="m 377.84,216.76054 a 15.59,15.59 0 0 1 -11.75,-25.85 c 0.45,-0.52 0.94,-1 1.44,-1.5 0.5,-0.5 0.87,-0.8 1.27,-1.12 l 3,-2.35 c 0.88,-0.69 1.76,-1.38 2.66,-2 l 1.68,-1.2 1.27,-0.89 c 0.88,-0.64 1.77,-1.27 2.68,-1.88 l 1.72,-1.12 1.37,-0.87 c 0.88,-0.58 1.77,-1.16 2.68,-1.71 0.56,-0.35 1.17,-0.7 1.78,-1.06 l 1.5,-0.88 c 0.86,-0.51 1.73,-1 2.61,-1.51 0.64,-0.36 1.27,-0.69 1.91,-1 l 1.52,-0.8 c 0.86,-0.47 1.73,-0.93 2.62,-1.38 0.65,-0.33 1.32,-0.64 2,-1 l 1.52,-0.72 c 0.88,-0.43 1.76,-0.85 2.65,-1.25 0.66,-0.3 1.34,-0.58 2,-0.87 l 1.53,-0.65 c 0.91,-0.4 1.82,-0.79 2.74,-1.16 l 2,-0.77 1.61,-0.6 c 0.91,-0.35 1.81,-0.7 2.73,-1 0.74,-0.27 1.43,-0.49 2.12,-0.71 l 1.64,-0.54 c 0.92,-0.31 1.83,-0.62 2.75,-0.9 0.69,-0.21 1.41,-0.41 2.14,-0.62 l 1.75,-0.49 c 0.89,-0.26 1.77,-0.52 2.67,-0.75 0.75,-0.19 1.49,-0.37 2.24,-0.54 l 1.76,-0.43 2.64,-0.62 c 0.83,-0.17 1.66,-0.34 2.5,-0.49 l 1.77,-0.35 c 0.81,-0.16 1.63,-0.32 2.45,-0.46 0.82,-0.14 1.77,-0.29 2.68,-0.42 l 1.77,-0.26 c 0.77,-0.13 1.54,-0.24 2.31,-0.34 0.77,-0.1 1.82,-0.22 2.74,-0.31 l 1.8,-0.19 c 0.76,-0.09 1.53,-0.17 2.29,-0.24 1.1,-0.09 2.23,-0.16 3.37,-0.23 l 1.55,-0.09 c 0.64,-0.05 1.29,-0.09 1.94,-0.12 q 3.4,-0.15 6.86,-0.15 a 162,162 0 0 1 101.59,36 15.582465,15.582465 0 1 1 -19.6,24.23 131,131 0 0 0 -87.54,-28.92 l -3,0.19 c -0.82,0.05 -1.64,0.09 -2.46,0.17 l -3.63,0.38 c -0.63,0.07 -1.25,0.13 -1.87,0.21 l -3.64,0.55 c -0.61,0.08 -1.21,0.17 -1.81,0.27 l -1.62,0.31 -2.15,0.42 c -0.56,0.1 -1.11,0.21 -1.67,0.33 -0.56,0.12 -1.21,0.28 -1.81,0.43 l -3.56,0.85 c -0.61,0.16 -1.22,0.34 -1.84,0.52 l -3.44,1 c -0.67,0.2 -1.3,0.42 -1.93,0.63 l -3.34,1.07 -1.93,0.72 -3.2,1.21 -2,0.83 -3.1,1.33 c -0.65,0.29 -1.28,0.6 -1.91,0.9 l -3.08,1.47 c -0.63,0.32 -1.25,0.66 -1.87,1 l -3,1.6 -1.91,1.08 -2.86,1.68 c -0.69,0.43 -1.34,0.85 -2,1.27 l -2.7,1.74 c -0.66,0.44 -1.31,0.91 -2,1.38 l -2.56,1.8 c -0.67,0.5 -1.33,1 -2,1.53 l -2.11,1.64 a 15.59,15.59 0 0 1 -10.93,4.57 z m 11.71,-5.29 z m 0,0 z m 0,0 z m 0,0 z m 0.12,-0.06 z m 0,0 z m 0,0 z m 0,0 z"
     id="path5" />
</svg>
