<svg id="Capa_1" data-name="Capa 1" xmlns="http://www.w3.org/2000/svg" viewBox="0 0 1200 1200"><defs><style>.cls-1{fill:#3558d8;}.cls-2{fill:#75e9e0;}</style></defs><path class="cls-1" d="M369.26,921.91V563.08H242V518.52H547.51v44.56H419.69V921.91Z"/><path d="M603.13,921.91V880.28q31.67-.59,48.67-3.52t24.62-12.6q7.62-9.67,9.09-31.08T687,773.57V518.52H737.4V757.74q0,46.9-1.76,77.69t-8.21,48.07Q721,900.81,706.62,909t-39.28,10.55Q642.41,921.92,603.13,921.91Z"/><path class="cls-2" d="M562.61,433.54a15.59,15.59,0,0,1-9.81-27.7,253.69,253.69,0,0,1,319.12,0,15.59,15.59,0,1,1-19.61,24.23,222.52,222.52,0,0,0-279.9,0A15.56,15.56,0,0,1,562.61,433.54Z"/><path class="cls-1" d="M482.34,390.65a15.59,15.59,0,0,1-9.81-27.7,381.33,381.33,0,0,1,479.66,0,15.59,15.59,0,1,1-19.61,24.23,350.16,350.16,0,0,0-440.44,0A15.56,15.56,0,0,1,482.34,390.65Z"/><path class="cls-1" d="M619.84,494.85A15.59,15.59,0,0,1,608.09,469c.45-.52.94-1,1.44-1.5s.87-.8,1.27-1.12l3-2.35c.88-.69,1.76-1.38,2.66-2l1.68-1.2,1.27-.89c.88-.64,1.77-1.27,2.68-1.88l1.72-1.12,1.37-.87c.88-.58,1.77-1.16,2.68-1.71.56-.35,1.17-.7,1.78-1.06l1.5-.88c.86-.51,1.73-1,2.61-1.51.64-.36,1.27-.69,1.91-1l1.52-.8c.86-.47,1.73-.93,2.62-1.38.65-.33,1.32-.64,2-1l1.52-.72c.88-.43,1.76-.85,2.65-1.25.66-.3,1.34-.58,2-.87l1.53-.65c.91-.4,1.82-.79,2.74-1.16l2-.77,1.61-.6c.91-.35,1.81-.7,2.73-1,.74-.27,1.43-.49,2.12-.71l1.64-.54c.92-.31,1.83-.62,2.75-.9.69-.21,1.41-.41,2.14-.62l1.75-.49c.89-.26,1.77-.52,2.67-.75.75-.19,1.49-.37,2.24-.54l1.76-.43,2.64-.62c.83-.17,1.66-.34,2.5-.49l1.77-.35c.81-.16,1.63-.32,2.45-.46s1.77-.29,2.68-.42l1.77-.26c.77-.13,1.54-.24,2.31-.34s1.82-.22,2.74-.31l1.8-.19c.76-.09,1.53-.17,2.29-.24,1.1-.09,2.23-.16,3.37-.23l1.55-.09c.64-.05,1.29-.09,1.94-.12q3.4-.15,6.86-.15a162,162,0,0,1,101.59,36,15.58,15.58,0,1,1-19.6,24.23,131,131,0,0,0-87.54-28.92l-3,.19c-.82.05-1.64.09-2.46.17l-3.63.38c-.63.07-1.25.13-1.87.21l-3.64.55c-.61.08-1.21.17-1.81.27l-1.62.31-2.15.42c-.56.1-1.11.21-1.67.33s-1.21.28-1.81.43l-3.56.85c-.61.16-1.22.34-1.84.52l-3.44,1c-.67.2-1.3.42-1.93.63L669,469.1l-1.93.72-3.2,1.21-2,.83-3.1,1.33c-.65.29-1.28.6-1.91.9l-3.08,1.47c-.63.32-1.25.66-1.87,1l-3,1.6L647,479.24l-2.86,1.68c-.69.43-1.34.85-2,1.27l-2.7,1.74c-.66.44-1.31.91-2,1.38l-2.56,1.8c-.67.5-1.33,1-2,1.53l-2.11,1.64A15.59,15.59,0,0,1,619.84,494.85Zm11.71-5.29h0Zm0,0h0Zm0,0,0,0Zm0,0,0,0Zm.12-.06,0,0Zm0,0Zm0,0h0Zm0,0Z"/></svg>